<svg width="1945" height="1505" viewBox="0 0 1945 1505" fill="none" xmlns="http://www.w3.org/2000/svg">
<path d="M339.846 1412.16C346.701 1412.16 353.036 1413.33 358.851 1415.67C364.665 1417.93 369.699 1421.14 373.951 1425.3C378.29 1429.47 381.631 1434.37 383.975 1440.01C386.405 1445.66 387.62 1451.82 387.62 1458.5C387.62 1465.18 386.405 1471.34 383.975 1476.99C381.631 1482.63 378.29 1487.53 373.951 1491.69C369.699 1495.86 364.665 1499.11 358.851 1501.46C353.036 1503.71 346.701 1504.84 339.846 1504.84C332.99 1504.84 326.61 1503.71 320.709 1501.46C314.895 1499.11 309.818 1495.86 305.479 1491.69C301.226 1487.44 297.885 1482.54 295.455 1476.99C293.112 1471.34 291.94 1465.18 291.94 1458.5C291.94 1451.82 293.112 1445.7 295.455 1440.15C297.885 1434.5 301.226 1429.6 305.479 1425.44C309.818 1421.18 314.895 1417.93 320.709 1415.67C326.524 1413.33 332.903 1412.16 339.846 1412.16ZM1023.46 1412.16C1030.32 1412.16 1036.65 1413.33 1042.47 1415.67C1048.28 1417.93 1053.32 1421.14 1057.57 1425.3C1061.91 1429.47 1065.25 1434.37 1067.59 1440.01C1070.02 1445.66 1071.24 1451.82 1071.24 1458.5C1071.24 1465.18 1070.02 1471.34 1067.59 1476.99C1065.25 1482.63 1061.91 1487.53 1057.57 1491.69C1053.32 1495.86 1048.28 1499.11 1042.47 1501.46C1036.65 1503.71 1030.32 1504.84 1023.46 1504.84C1016.61 1504.84 1010.23 1503.71 1004.33 1501.46C998.512 1499.11 993.435 1495.86 989.096 1491.69C984.843 1487.44 981.502 1482.54 979.072 1476.99C976.729 1471.34 975.557 1465.18 975.557 1458.5C975.557 1451.82 976.729 1445.7 979.072 1440.15C981.502 1434.5 984.843 1429.6 989.096 1425.44C993.435 1421.18 998.512 1417.93 1004.33 1415.67C1010.14 1413.33 1016.52 1412.16 1023.46 1412.16ZM1363.7 1412.16C1368.82 1412.16 1373.9 1412.89 1378.93 1414.37C1383.96 1415.76 1388.3 1417.71 1391.95 1420.23L1388.69 1427.91C1384.79 1425.3 1380.62 1423.4 1376.2 1422.18C1371.86 1420.97 1367.65 1420.36 1363.57 1420.36C1358.1 1420.36 1353.59 1421.1 1350.03 1422.57C1346.47 1424.05 1343.83 1426.04 1342.09 1428.56C1340.44 1430.99 1339.62 1433.77 1339.62 1436.89C1339.62 1440.45 1340.62 1443.31 1342.61 1445.48C1344.69 1447.65 1347.38 1449.34 1350.68 1450.56C1354.07 1451.77 1357.76 1452.86 1361.75 1453.81C1365.74 1454.77 1369.69 1455.81 1373.59 1456.94C1377.58 1458.07 1381.23 1459.54 1384.53 1461.36C1387.91 1463.1 1390.6 1465.44 1392.6 1468.39C1394.68 1471.34 1395.72 1475.21 1395.72 1479.98C1395.72 1484.4 1394.51 1488.53 1392.08 1492.35C1389.65 1496.08 1385.92 1499.11 1380.88 1501.46C1375.94 1503.71 1369.56 1504.84 1361.75 1504.84C1354.98 1504.84 1348.47 1503.76 1342.22 1501.59C1336.06 1499.33 1331.29 1496.47 1327.9 1493L1331.68 1485.58C1334.89 1488.7 1339.18 1491.35 1344.56 1493.52C1350.03 1495.6 1355.76 1496.64 1361.75 1496.64C1367.47 1496.64 1372.12 1495.95 1375.68 1494.56C1379.32 1493.08 1381.97 1491.13 1383.62 1488.7C1385.35 1486.27 1386.22 1483.58 1386.22 1480.63C1386.22 1477.07 1385.18 1474.21 1383.1 1472.04C1381.1 1469.87 1378.45 1468.18 1375.16 1466.96C1371.86 1465.66 1368.21 1464.53 1364.22 1463.58C1360.23 1462.62 1356.24 1461.62 1352.24 1460.58C1348.25 1459.45 1344.56 1457.98 1341.18 1456.16C1337.88 1454.33 1335.19 1451.95 1333.11 1449C1331.11 1445.96 1330.11 1442.01 1330.11 1437.15C1330.11 1432.64 1331.29 1428.52 1333.63 1424.78C1336.06 1420.97 1339.75 1417.93 1344.69 1415.67C1349.64 1413.33 1355.98 1412.16 1363.7 1412.16ZM189.621 1421.27H136.77V1457.07H183.894V1465.4H136.77V1504.06H127.137V1412.94H189.621V1421.27ZM226.957 1495.73H277.986V1504.06H217.324V1412.94H226.957V1495.73ZM451.128 1412.94C458.852 1412.94 465.491 1414.2 471.045 1416.71C476.599 1419.14 480.852 1422.7 483.803 1427.39C486.84 1431.99 488.358 1437.59 488.358 1444.18C488.358 1450.6 486.84 1456.16 483.803 1460.84C480.852 1465.44 476.599 1469 471.045 1471.52C469.922 1472.01 468.754 1472.45 467.542 1472.84L489.791 1504.06H479.246L458.479 1474.76C456.149 1475.03 453.698 1475.16 451.128 1475.16H426.655V1504.06H417.022V1412.94H451.128ZM528.538 1504.06H518.905V1412.94H528.538V1504.06ZM600.104 1412.94C607.827 1412.94 614.466 1414.2 620.021 1416.71C625.574 1419.14 629.827 1422.7 632.777 1427.39C635.815 1431.99 637.334 1437.59 637.334 1444.18C637.334 1450.6 635.815 1456.16 632.777 1460.84C629.827 1465.44 625.575 1469 620.021 1471.52C614.466 1474.03 607.827 1475.29 600.104 1475.29H575.631V1504.06H565.997V1412.94H600.104ZM739.633 1504.06H729.479L718.585 1479.72H667.734L656.841 1504.06H646.817L688.474 1412.94H697.977L739.633 1504.06ZM814.03 1504.06H804.397V1412.94H814.03V1504.06ZM898.993 1480.44L938.187 1412.94H946.127V1504.06H936.885V1431.18L901.086 1492.48H896.53L860.731 1431.59V1504.06H851.489V1412.94H859.43L898.993 1480.44ZM1128.7 1492.24L1163.84 1412.94H1173.6L1133.25 1504.06H1123.75L1083.39 1412.94H1093.81L1128.7 1492.24ZM1257.12 1421.27H1204.27V1453.68H1251.4V1461.88H1204.27V1495.73H1259.08V1504.06H1194.64V1412.94H1257.12V1421.27ZM1299.16 1504.06H1289.53V1412.94H1299.16V1504.06ZM339.846 1420.75C334.378 1420.75 329.301 1421.7 324.614 1423.61C319.928 1425.44 315.849 1428.08 312.378 1431.55C308.994 1434.94 306.304 1438.93 304.308 1443.53C302.398 1448.04 301.443 1453.03 301.443 1458.5C301.443 1463.88 302.398 1468.87 304.308 1473.47C306.304 1478.07 308.994 1482.1 312.378 1485.58C315.849 1488.96 319.928 1491.61 324.614 1493.52C329.301 1495.34 334.378 1496.25 339.846 1496.25C345.313 1496.25 350.346 1495.34 354.945 1493.52C359.632 1491.61 363.667 1488.96 367.052 1485.58C370.523 1482.1 373.214 1478.11 375.123 1473.6C377.032 1469 377.987 1463.97 377.987 1458.5C377.987 1453.03 377.032 1448.04 375.123 1443.53C373.333 1439.22 370.856 1435.44 367.693 1432.2L366.41 1430.91C363.161 1427.75 359.339 1425.32 354.945 1423.61C350.346 1421.7 345.313 1420.75 339.846 1420.75ZM1023.46 1420.75C1017.99 1420.75 1012.92 1421.7 1008.23 1423.61C1003.55 1425.44 999.466 1428.08 995.995 1431.55C992.611 1434.94 989.92 1438.93 987.924 1443.53C986.015 1448.04 985.06 1453.03 985.06 1458.5C985.06 1463.88 986.015 1468.87 987.924 1473.47C989.92 1478.07 992.611 1482.1 995.995 1485.58C999.466 1488.96 1003.55 1491.61 1008.23 1493.52C1012.92 1495.34 1017.99 1496.25 1023.46 1496.25C1028.93 1496.25 1033.96 1495.34 1038.56 1493.52C1043.25 1491.61 1047.28 1488.96 1050.67 1485.58C1054.14 1482.1 1056.83 1478.11 1058.74 1473.6C1060.65 1469 1061.6 1463.97 1061.6 1458.5C1061.6 1453.03 1060.65 1448.04 1058.74 1443.53C1056.83 1438.93 1054.14 1434.94 1050.67 1431.55C1047.28 1428.08 1043.25 1425.44 1038.56 1423.61C1033.96 1421.7 1028.93 1420.75 1023.46 1420.75ZM1944.08 1454.41V1473.17H1441.66V1454.41H1925.56L1925.57 848.606H1944.09L1944.08 1454.41ZM671.229 1471.91H715.09L693.159 1422.9L671.229 1471.91ZM426.655 1466.96H450.868C459.98 1466.96 466.88 1464.97 471.566 1460.97C476.339 1456.98 478.726 1451.38 478.726 1444.18C478.726 1436.89 476.339 1431.25 471.566 1427.26C466.88 1423.27 459.98 1421.27 450.868 1421.27H426.655V1466.96ZM575.631 1466.83H599.843C608.955 1466.83 615.855 1464.88 620.541 1460.97C625.314 1456.98 627.701 1451.38 627.701 1444.18C627.701 1436.89 625.314 1431.25 620.541 1427.26C615.855 1423.27 608.955 1421.27 599.843 1421.27H575.631V1466.83ZM1024.11 1405.52H1015L1032.83 1389.38H1045.2L1024.11 1405.52ZM1616.42 848.606C1663.16 848.606 1703.32 859.27 1736.89 880.596C1770.47 901.468 1792.48 929.373 1802.91 964.312L1778.41 969.757C1770.7 971.572 1763.21 970.664 1755.95 967.034C1749.14 963.404 1744.15 957.959 1740.98 950.699C1735.99 938.902 1731 928.919 1726 920.752C1721.01 912.131 1713.75 902.829 1704.22 892.847C1694.7 882.411 1682.22 874.47 1666.79 869.025C1651.82 863.58 1634.57 860.857 1615.06 860.857C1586.93 860.857 1561.52 870.386 1538.83 889.443C1516.6 908.501 1499.58 933.911 1487.79 965.673C1475.99 996.981 1470.09 1031.47 1470.09 1069.13C1470.09 1104.52 1475.99 1138.1 1487.79 1169.86C1500.04 1201.62 1517.51 1227.94 1540.19 1248.81C1563.34 1269.23 1589.2 1279.44 1617.79 1279.44C1661.8 1279.44 1695.6 1262.42 1719.2 1228.39C1743.25 1194.36 1755.27 1147.63 1755.27 1088.18H1652.5V1076.61H1818.57V1088.18C1818.57 1103.16 1816.07 1119.27 1811.08 1136.51C1806.09 1153.75 1797.92 1171.67 1786.58 1190.28C1775.69 1208.43 1762.3 1224.99 1746.42 1239.96C1730.54 1254.48 1710.35 1266.51 1685.85 1276.04C1661.34 1285.56 1634.57 1290.33 1605.53 1290.33C1567.42 1290.33 1532.03 1280.35 1499.36 1260.38C1466.69 1239.96 1440.6 1212.06 1421.09 1176.67C1402.03 1141.27 1392.5 1102.48 1392.5 1060.28C1392.5 1032.6 1396.81 1006.96 1405.43 983.369C1414.51 959.774 1426.53 939.809 1441.5 923.475C1456.48 907.14 1473.49 893.301 1492.55 881.957C1512.06 870.16 1532.25 861.765 1553.13 856.773C1574 851.328 1595.1 848.606 1616.42 848.606ZM441.076 1284.89L385.266 1283.53V852.696H441.076V1284.89ZM960.85 1284.89L905.039 1283.53V852.696H960.85V1284.89ZM1328.14 1186.2V852.696H1343.11V1284.21L1328.14 1284.89L1044.32 955.47V1284.21L1029.34 1284.89V852.696H1042.28L1328.14 1186.2ZM175.875 1274H337.862V1284.21H118.703V852.696H175.194L175.875 1274ZM666.768 1195.77L790.093 852.696H856.675L673.589 1284.21H658.615L489.141 852.696H555.842L666.768 1195.77ZM636.615 18.7539L18.5156 18.7549V738.835H0V0H636.615V18.7539ZM262.513 105.491C333.069 105.491 382.572 114.027 411.022 131.097C439.472 147.598 453.697 169.789 453.697 197.67C453.697 217.016 448.292 234.086 437.481 248.88C426.67 263.105 413.014 275.623 396.513 286.434C380.581 297.245 359.243 309.478 332.5 323.134L300.067 341.058C322.258 334.799 344.45 331.669 366.641 331.669C400.212 331.669 431.791 337.928 461.379 350.446C491.536 362.964 516.003 381.741 534.78 406.777C553.557 431.244 562.945 461.117 562.945 496.396C562.945 565.244 535.349 617.023 480.156 651.732C424.963 685.872 350.993 702.942 258.246 702.942H112.297V105.491H262.513ZM599.716 628.798C609.886 628.798 618.45 632.545 625.409 640.039C632.903 646.998 636.65 655.562 636.65 665.732C636.65 675.903 632.903 684.736 625.409 692.229C618.451 699.188 609.886 702.667 599.716 702.667C589.546 702.667 580.714 699.188 573.22 692.229C566.261 684.736 562.781 675.903 562.781 665.732C562.781 655.562 566.261 646.998 573.22 640.039C580.714 632.545 589.545 628.798 599.716 628.798ZM337.621 347.032C305.188 347.032 277.592 354.43 254.832 369.224C221.83 393.691 200.492 420.718 190.819 450.306V689.286H258.246C306.042 689.286 347.294 681.321 382.003 665.389C417.281 649.457 444.024 626.981 462.232 597.962C481.009 568.943 490.398 535.087 490.398 496.396C490.398 464.531 483.001 437.504 468.207 415.312C453.982 392.552 435.205 375.483 411.876 364.103C388.547 352.723 363.795 347.032 337.621 347.032ZM190.819 427.262C199.923 408.485 211.872 392.553 226.666 379.466C241.46 365.81 260.522 351.3 283.851 335.937C304.334 322.281 320.551 310.332 332.5 300.09C344.449 289.848 354.407 277.329 362.373 262.535C370.339 247.741 374.322 230.387 374.322 210.472C374.322 180.884 364.933 157.839 346.156 141.338C327.379 124.837 299.498 116.587 262.513 116.587H190.819V427.262Z" fill="#D2BA9F"/>
</svg>
